HIERARCHY
ROOT Hips
{
	OFFSET 0.00000 0.00000 0.00000
	CHANNELS 6 Xposition Yposition Zposition Zrotation Yrotation Xrotation 
	JOINT LHipJoint
	{
		OFFSET 0 0 0
		CHANNELS 3 Zrotation Yrotation Xrotation
		JOINT LeftUpLeg
		{
			OFFSET 1.37324 -1.83837 0.85674
			CHANNELS 3 Zrotation Yrotation Xrotation
			JOINT LeftLeg
			{
				OFFSET 2.53826 -6.97383 0.00000
				CHANNELS 3 Zrotation Yrotation Xrotation
				JOINT LeftFoot
				{
					OFFSET 2.65296 -7.28895 0.00000
					CHANNELS 3 Zrotation Yrotation Xrotation
					JOINT LeftToeBase
					{
						OFFSET 0.22100 -0.60718 2.29776
						CHANNELS 3 Zrotation Yrotation Xrotation
						End Site
						{
							OFFSET 0.00000 -0.00000 1.19228
						}
					}
				}
			}
		}
	}
	JOINT RHipJoint
	{
		OFFSET 0 0 0
		CHANNELS 3 Zrotation Yrotation Xrotation
		JOINT RightUpLeg
		{
			OFFSET -1.30156 -1.83836 0.85673
			CHANNELS 3 Zrotation Yrotation Xrotation
			JOINT RightLeg
			{
				OFFSET -2.63627 -7.24310 0.00000
				CHANNELS 3 Zrotation Yrotation Xrotation
				JOINT RightFoot
				{
					OFFSET -2.62024 -7.19904 0.00000
					CHANNELS 3 Zrotation Yrotation Xrotation
					JOINT RightToeBase
					{
						OFFSET -0.20765 -0.57052 2.42402
						CHANNELS 3 Zrotation Yrotation Xrotation
						End Site
						{
							OFFSET -0.00000 -0.00000 1.24980
						}
					}
				}
			}
		}
	}
	JOINT LowerBack
	{
		OFFSET 0 0 0
		CHANNELS 3 Zrotation Yrotation Xrotation
		JOINT Spine
		{
			OFFSET 0.05739 2.14162 -0.22815
			CHANNELS 3 Zrotation Yrotation Xrotation
			JOINT Spine1
			{
				OFFSET 0.02798 2.14167 0.08145
				CHANNELS 3 Zrotation Yrotation Xrotation
				JOINT Neck
				{
					OFFSET 0 0 0
					CHANNELS 3 Zrotation Yrotation Xrotation
					JOINT Neck1
					{
						OFFSET -0.07019 1.58903 0.32980
						CHANNELS 3 Zrotation Yrotation Xrotation
						JOINT Head
						{
							OFFSET -0.03205 1.65283 -0.21190
							CHANNELS 3 Zrotation Yrotation Xrotation
							End Site
							{
								OFFSET -0.00726 1.66788 -0.10849
							}
						}
					}
				}
				JOINT LeftShoulder
				{
					OFFSET 0 0 0
					CHANNELS 3 Zrotation Yrotation Xrotation
					JOINT LeftArm
					{
						OFFSET 3.92858 0.97533 -0.07938
						CHANNELS 3 Zrotation Yrotation Xrotation
						JOINT LeftForeArm
						{
							OFFSET 5.58345 -0.00000 -0.00000
							CHANNELS 3 Zrotation Yrotation Xrotation
							JOINT LeftHand
							{
								OFFSET 3.71087 -0.00000 0.00000
								CHANNELS 3 Zrotation Yrotation Xrotation
								JOINT LeftFingerBase
								{
									OFFSET 0 0 0
									CHANNELS 3 Zrotation Yrotation Xrotation
									JOINT LeftHandIndex1
									{
										OFFSET 0.56232 -0.00000 -0.00000
										CHANNELS 3 Zrotation Yrotation Xrotation
										End Site
										{
											OFFSET 0.45336 -0.00000 -0.00000
										}
									}
								}
								JOINT LThumb
								{
									OFFSET 0 0 0
									CHANNELS 3 Zrotation Yrotation Xrotation
									End Site
									{
										OFFSET 0.46028 -0.00000 0.46028
									}
								}
							}
						}
					}
				}
				JOINT RightShoulder
				{
					OFFSET 0 0 0
					CHANNELS 3 Zrotation Yrotation Xrotation
					JOINT RightArm
					{
						OFFSET -3.89897 1.08887 -0.22589
						CHANNELS 3 Zrotation Yrotation Xrotation
						JOINT RightForeArm
						{
							OFFSET -5.20357 -0.00000 -0.00000
							CHANNELS 3 Zrotation Yrotation Xrotation
							JOINT RightHand
							{
								OFFSET -3.64937 -0.00000 0.00000
								CHANNELS 3 Zrotation Yrotation Xrotation
								JOINT RightFingerBase
								{
									OFFSET 0 0 0
									CHANNELS 3 Zrotation Yrotation Xrotation
									JOINT RightHandIndex1
									{
										OFFSET -0.61800 -0.00000 -0.00000
										CHANNELS 3 Zrotation Yrotation Xrotation
										End Site
										{
											OFFSET -0.49824 -0.00000 -0.00000
										}
									}
								}
								JOINT RThumb
								{
									OFFSET 0 0 0
									CHANNELS 3 Zrotation Yrotation Xrotation
									End Site
									{
										OFFSET -0.50585 -0.00000 0.50585
									}
								}
							}
						}
					}
				}
			}
		}
	}
}
MOTION
Frames: 16
Frame Time: .0083333
-0.4097 18.6479 14.3481 -3.1183 6.3774 5.2675 0.0000 0.0000 0.0000 -18.6341 -7.2520 -5.1490 3.2236 11.0485 32.4435 -0.0611 -6.8125 -3.0740 0.5193 -4.6185 -12.8236 0.0000 0.0000 0.0000 25.8088 4.8549 -9.6507 -2.8952 -10.5234 30.6888 -0.0974 -1.2488 -6.4931 -0.0258 1.0367 -2.8498 2.0581 -0.0901 2.3596 2.8669 0.1460 -4.4634 1.8170 0.0546 -5.9604 -2.3187 -1.5629 -22.2826 -2.8760 -0.6738 19.6982 -0.7358 -0.8435 9.9513 0.0000 -0.0000 0.0000 -88.8813 14.4027 29.8173 36.9400 -46.1488 -16.1968 -0.0000 -0.0000 6.4723 18.4953 -2.7288 -0.9124 -7.1250 0.0000 -0.0000 -6.1984 27.0893 2.7106 0.0000 -0.0000 0.0000 85.0575 -9.2911 20.3251 -26.1128 37.3199 -8.9559 0.0000 0.0000 2.0019 -33.1555 -4.3712 2.8505 7.1250 -0.0000 -0.0000 -5.4107 -35.1552 -1.3132
-0.4009 18.6492 14.4452 -3.0833 6.3507 5.5661 0.0000 0.0000 0.0000 -18.6537 -7.3207 -5.1429 3.2271 11.0540 32.4621 -0.0674 -6.8463 -2.9084 0.5606 -4.7959 -13.3274 0.0000 0.0000 0.0000 25.7794 4.7051 -9.7060 -2.8993 -10.5302 30.7114 -0.1009 -1.1539 -6.5405 -0.0283 1.0854 -2.9838 2.1034 -0.1390 2.3194 2.8771 0.0813 -4.4535 1.8067 0.0207 -5.9258 -2.2828 -1.5195 -22.2608 -2.8810 -0.6286 19.5887 -0.7354 -0.8188 9.9081 -0.0000 -0.0000 0.0000 -88.8359 14.4731 29.8027 36.5930 -45.9167 -15.9470 -0.0000 -0.0000 6.7495 18.3794 -2.6931 -0.8944 -7.1250 0.0000 -0.0000 -6.2886 27.1281 2.7447 -0.0000 -0.0000 0.0000 85.1292 -9.0679 20.3768 -26.3322 37.5348 -9.0893 0.0000 0.0000 2.0254 -33.2387 -4.3919 2.8730 7.1250 -0.0000 -0.0000 -5.4808 -35.1837 -1.3265
-0.3972 18.6470 14.5356 -3.1017 6.2460 5.8373 0.0000 0.0000 0.0000 -18.6003 -7.3963 -5.1294 3.2309 11.0598 32.4818 -0.0709 -6.7885 -2.7256 0.5521 -4.7598 -13.2248 0.0000 0.0000 0.0000 25.8570 4.7852 -9.6972 -2.9080 -10.5447 30.7592 -0.0999 -1.2227 -6.5520 -0.0256 1.0322 -2.8375 2.1074 -0.1592 2.3948 2.9332 0.0603 -4.4499 1.8651 0.0114 -5.9654 -2.2087 -1.4592 -22.1867 -2.9689 -0.5572 19.3963 -0.7651 -0.7874 9.8261 -0.0000 0.0000 0.0000 -88.8521 14.4948 29.7323 36.2252 -45.6675 -15.6834 -0.0000 -0.0000 6.9959 18.3579 -2.7491 -0.9118 -7.1250 0.0000 -0.0000 -6.3024 27.0698 2.7595 -0.0000 0.0000 0.0000 85.1573 -8.8641 20.4858 -26.5439 37.7408 -9.2186 0.0000 0.0000 2.0207 -33.4232 -4.1649 2.7441 7.1250 -0.0000 -0.0000 -5.6253 -34.9220 -1.3977
-0.3881 18.6459 14.6306 -3.1194 6.1783 6.1392 0.0000 0.0000 0.0000 -18.5720 -7.3928 -5.1682 3.2364 11.0682 32.5103 -0.0748 -6.8094 -2.6135 0.6003 -4.9599 -13.7943 0.0000 0.0000 0.0000 25.8803 4.6404 -9.7811 -2.9183 -10.5615 30.8150 -0.1040 -1.1055 -6.6034 -0.0316 1.1467 -3.1525 2.1919 -0.1921 2.3905 2.9569 0.0223 -4.4646 1.8456 -0.0107 -5.9782 -2.0948 -1.4010 -22.1190 -3.0626 -0.4988 19.2577 -0.8059 -0.7606 9.7643 0.0000 0.0000 0.0000 -88.8327 14.5800 29.6451 35.9801 -45.4995 -15.5083 -0.0000 -0.0000 7.0489 18.2727 -2.6207 -0.8650 -7.1250 0.0000 -0.0000 -6.3737 27.2052 2.7706 0.0000 0.0000 0.0000 85.2190 -8.7662 20.6092 -26.8435 38.0295 -9.4026 0.0000 0.0000 1.9804 -33.3772 -4.2004 2.7626 7.1250 -0.0000 -0.0000 -5.5885 -34.9622 -1.3830
-0.3797 18.6435 14.7250 -3.1551 6.0475 6.4086 0.0000 0.0000 0.0000 -18.5332 -7.3312 -5.1977 3.2444 11.0806 32.5522 -0.0777 -6.7759 -2.4742 0.6299 -5.0784 -14.1323 0.0000 0.0000 0.0000 25.9319 4.6114 -9.8060 -2.9306 -10.5818 30.8823 -0.1037 -1.1060 -6.5929 -0.0296 1.1111 -3.0547 2.2622 -0.1899 2.3959 3.0105 0.0306 -4.4280 1.8610 -0.0084 -5.9432 -2.0798 -1.3674 -22.1380 -3.1174 -0.4475 19.1293 -0.8189 -0.7405 9.7225 -0.0000 -0.0000 0.0000 -88.8817 14.5477 29.5663 35.7559 -45.3444 -15.3486 -0.0000 -0.0000 6.9692 18.1749 -2.4895 -0.8170 -7.1250 0.0000 -0.0000 -6.4550 27.3436 2.7852 -0.0000 -0.0000 0.0000 85.2346 -8.6454 20.7441 -27.1751 38.3457 -9.6076 0.0000 0.0000 1.8460 -33.4291 -4.1388 2.7276 7.1250 -0.0000 -0.0000 -5.6291 -34.8913 -1.4029
-0.3697 18.6388 14.8217 -3.1690 5.9672 6.6638 0.0000 0.0000 0.0000 -18.5227 -7.2654 -5.2118 3.2540 11.0952 32.6017 -0.0816 -6.7643 -2.3175 0.6669 -5.2227 -14.5447 0.0000 0.0000 0.0000 25.9472 4.4574 -9.8410 -2.9434 -10.6029 30.9520 -0.1089 -0.9694 -6.6671 -0.0318 1.1506 -3.1632 2.3562 -0.1845 2.4280 3.0279 0.0446 -4.4156 1.8255 -0.0053 -5.9491 -2.0326 -1.3508 -22.0593 -3.1795 -0.4341 18.9476 -0.8438 -0.7349 9.6439 0.0000 -0.0000 0.0000 -88.8474 14.5884 29.5890 35.6384 -45.2626 -15.2651 -0.0000 -0.0000 6.7347 18.1022 -2.1407 -0.6996 -7.1250 0.0000 -0.0000 -6.5287 27.7089 2.7608 0.0000 -0.0000 0.0000 85.2443 -8.5607 20.9001 -27.4707 38.6243 -9.7915 0.0000 0.0000 1.6311 -33.4866 -4.1024 2.7096 7.1250 -0.0000 -0.0000 -5.6752 -34.8504 -1.4201
-0.3607 18.6345 14.9147 -3.1912 5.8236 6.9163 0.0000 0.0000 0.0000 -18.5077 -7.1791 -5.2328 3.2598 11.1042 32.6323 -0.0842 -6.7265 -2.1712 0.7143 -5.4012 -15.0565 0.0000 0.0000 0.0000 25.9743 4.4133 -9.8748 -2.9627 -10.6345 31.0568 -0.1114 -0.8890 -6.6956 -0.0393 1.2799 -3.5194 2.4047 -0.1557 2.5095 3.0671 0.0910 -4.4013 1.8362 0.0163 -5.9819 -2.0095 -1.3265 -22.0087 -3.2178 -0.4060 18.7899 -0.8547 -0.7220 9.5793 0.0000 -0.0000 0.0000 -88.8818 14.5495 29.5378 35.4751 -45.1484 -15.1492 -0.0000 -0.0000 6.4621 18.0695 -2.1685 -0.7073 -7.1250 0.0000 -0.0000 -6.5524 27.6801 2.7754 0.0000 -0.0000 0.0000 85.2725 -8.5615 20.9991 -27.8255 38.9551 -10.0138 0.0000 0.0000 1.5774 -33.5685 -3.9179 2.5961 7.1250 -0.0000 -0.0000 -5.7350 -34.6340 -1.4655
-0.3504 18.6278 15.0105 -3.2003 5.7241 7.1371 0.0000 0.0000 0.0000 -18.5151 -7.0716 -5.2027 3.2639 11.1104 32.6533 -0.0888 -6.7123 -1.9721 0.7654 -5.5870 -15.5906 0.0000 0.0000 0.0000 25.9725 4.3194 -9.8798 -2.9882 -10.6759 31.1944 -0.1185 -0.7439 -6.8189 -0.0421 1.3238 -3.6401 2.4303 -0.1701 2.5225 3.1077 0.0728 -4.3314 1.8646 0.0074 -5.9155 -1.9363 -1.2750 -22.0229 -3.2737 -0.3501 18.6441 -0.8767 -0.6952 9.5305 0.0000 -0.0000 0.0000 -88.9267 14.4556 29.3962 35.3306 -45.0468 -15.0469 -0.0000 -0.0000 6.1335 18.0787 -2.0100 -0.6560 -7.1250 0.0000 -0.0000 -6.5538 27.8458 2.7503 0.0000 -0.0000 0.0000 85.2077 -8.4497 21.3313 -28.1257 39.2317 -10.2031 0.0000 0.0000 1.3034 -33.5224 -3.9900 2.6392 7.1250 -0.0000 -0.0000 -5.7001 -34.7180 -1.4448
-0.3398 18.6204 15.1062 -3.1076 5.5902 7.3744 0.0000 0.0000 0.0000 -18.6452 -6.9702 -5.1621 3.2657 11.1133 32.6629 -0.0913 -6.6864 -1.8347 0.8202 -5.7785 -16.1431 0.0000 0.0000 0.0000 25.8546 4.2786 -9.8987 -3.0215 -10.7297 31.3737 -0.1259 -0.6066 -6.9511 -0.0444 1.3605 -3.7413 2.3696 -0.1330 2.5523 3.1132 0.1177 -4.2571 1.9000 0.0327 -5.8547 -1.9423 -1.2777 -22.0614 -3.2872 -0.3523 18.4928 -0.8795 -0.6961 9.4841 -0.0000 0.0000 0.0000 -88.9511 14.2706 29.3773 35.1838 -44.9429 -14.9430 -0.0000 -0.0000 5.8344 18.1240 -1.9468 -0.6371 -7.1250 0.0000 -0.0000 -6.5224 27.9114 2.7268 -0.0000 0.0000 0.0000 85.1733 -8.4080 21.5032 -28.4684 39.5439 -10.4205 0.0000 0.0000 1.2062 -33.5583 -3.7910 2.5113 7.1250 -0.0000 -0.0000 -5.7208 -34.4823 -1.4830
-0.3284 18.6110 15.2008 -3.0614 5.4750 7.5978 0.0000 0.0000 0.0000 -18.7213 -6.8772 -5.1252 3.2681 11.1168 32.6749 -0.0947 -6.6506 -1.6377 0.8819 -5.9866 -16.7455 0.0000 0.0000 0.0000 25.7727 4.1760 -9.9611 -3.0635 -10.7972 31.5990 -0.1342 -0.4046 -7.0777 -0.0472 1.4020 -3.8558 2.3496 -0.1235 2.6098 3.1254 0.1307 -4.2158 1.9229 0.0404 -5.8445 -1.8549 -1.2351 -21.9475 -3.3516 -0.3181 18.2847 -0.9080 -0.6774 9.3907 0.0000 -0.0000 0.0000 -88.9933 14.1399 29.2757 35.0644 -44.8580 -14.8587 -0.0000 -0.0000 5.5948 18.1393 -1.7459 -0.5719 -7.1250 0.0000 -0.0000 -6.5218 28.1214 2.6940 0.0000 -0.0000 0.0000 85.1459 -8.4402 21.7007 -28.8424 39.8803 -10.6595 0.0000 0.0000 1.0994 -33.4114 -3.8538 2.5386 7.1250 -0.0000 -0.0000 -5.6021 -34.5513 -1.4426
-0.3196 18.6002 15.2964 -3.0387 5.3572 7.8188 0.0000 0.0000 0.0000 -18.7616 -6.7648 -5.1014 3.2719 11.1226 32.6946 -0.0986 -6.6659 -1.4867 0.9712 -6.2742 -17.5820 0.0000 0.0000 0.0000 25.7419 4.1827 -9.9903 -3.1132 -10.8761 31.8632 -0.1437 -0.2996 -7.2755 -0.0448 1.3653 -3.7545 2.3324 -0.0975 2.6652 3.1393 0.1661 -4.1769 1.9442 0.0591 -5.8358 -1.8195 -1.2242 -21.8765 -3.3703 -0.3175 18.1469 -0.9180 -0.6740 9.3297 -0.0000 0.0000 0.0000 -89.0158 13.9930 29.2062 34.9597 -44.7834 -14.7850 -0.0000 -0.0000 5.3774 18.2189 -1.6677 -0.5488 -7.1250 0.0000 -0.0000 -6.4648 28.2028 2.6576 -0.0000 0.0000 0.0000 85.1209 -8.4762 21.9112 -29.1119 40.1199 -10.8327 0.0000 0.0000 1.1105 -33.3643 -3.6523 2.4020 7.1250 -0.0000 -0.0000 -5.5543 -34.3096 -1.4629
-0.3091 18.5872 15.3895 -3.0133 5.2710 8.0420 0.0000 0.0000 0.0000 -18.8057 -6.7140 -5.0716 3.2781 11.1321 32.7268 -0.1039 -6.7191 -1.3271 1.1091 -6.6910 -18.8032 0.0000 0.0000 0.0000 25.6931 4.1386 -10.0879 -3.1772 -10.9765 32.2005 -0.1554 -0.1541 -7.5033 -0.0427 1.3334 -3.6667 2.3294 -0.0954 2.7585 3.1463 0.1726 -4.1611 1.9530 0.0624 -5.8729 -1.7427 -1.1826 -21.7431 -3.3762 -0.2939 17.9762 -0.9261 -0.6545 9.2463 -0.0000 0.0000 0.0000 -89.0215 13.8649 29.1113 34.8740 -44.7219 -14.7246 -0.0000 -0.0000 5.2180 18.3221 -1.7156 -0.5680 -7.1250 0.0000 -0.0000 -6.3825 28.1520 2.6311 -0.0000 0.0000 0.0000 85.0655 -8.5597 22.1930 -29.4040 40.3771 -11.0215 0.0000 0.0000 1.0199 -33.2834 -3.6098 2.3668 7.1250 -0.0000 -0.0000 -5.4857 -34.2560 -1.4518
-0.2996 18.5780 15.4867 -2.9358 5.1730 8.2886 0.0000 0.0000 0.0000 -18.9009 -6.9086 -5.0726 3.2859 11.1441 32.7674 -0.1053 -6.6029 -1.0587 1.0525 -6.5236 -18.3115 0.0000 0.0000 0.0000 25.5828 4.1451 -10.2096 -3.2592 -11.1033 32.6291 -0.1697 0.0034 -7.7799 -0.0347 1.2022 -3.3053 2.2483 -0.0530 2.7818 3.1545 0.2232 -4.0882 2.0022 0.0914 -5.8104 -1.7110 -1.1877 -21.7410 -3.4226 -0.3066 17.8005 -0.9472 -0.6609 9.1844 -0.0000 0.0000 0.0000 -89.0440 13.5940 29.1251 34.8027 -44.6708 -14.6745 -0.0000 -0.0000 5.1472 18.3420 -1.6120 -0.5343 -7.1250 0.0000 -0.0000 -6.3729 28.2605 2.6106 -0.0000 0.0000 0.0000 84.9875 -8.5149 22.3160 -29.6369 40.5801 -11.1727 0.0000 0.0000 1.0645 -33.2254 -3.6444 2.3842 7.1250 -0.0000 -0.0000 -5.4394 -34.2950 -1.4343
-0.2894 18.5598 15.5826 -2.8107 5.1129 8.5131 0.0000 0.0000 0.0000 -19.0642 -6.9508 -5.0039 3.2952 11.1583 32.8157 -0.1083 -6.6467 -0.9820 1.1659 -6.8545 -19.2850 0.0000 0.0000 0.0000 25.4109 4.0382 -10.4265 -3.3671 -11.2669 33.1853 -0.1852 0.2284 -8.0486 -0.0313 1.1424 -3.1408 2.1097 -0.0567 2.8057 3.1565 0.2089 -4.0244 2.0824 0.0904 -5.7566 -1.7002 -1.1580 -21.7063 -3.3884 -0.2819 17.6857 -0.9322 -0.6426 9.1384 -0.0000 0.0000 0.0000 -89.0844 13.4014 29.0475 34.8290 -44.6897 -14.6930 -0.0000 -0.0000 5.0907 18.3913 -1.4871 -0.4944 -7.1250 0.0000 -0.0000 -6.3418 28.3910 2.5780 -0.0000 0.0000 0.0000 84.9055 -8.5420 22.5564 -29.8617 40.7746 -11.3192 0.0000 0.0000 1.0512 -33.2156 -3.4814 2.2769 7.1250 -0.0000 -0.0000 -5.4242 -34.1008 -1.4559
-0.2770 18.5358 15.6735 -2.6572 5.0492 8.7480 0.0000 0.0000 0.0000 -19.2754 -6.9705 -4.9289 3.3094 11.1799 32.8890 -0.1106 -6.7496 -1.0565 1.3390 -7.3267 -20.6868 0.0000 0.0000 0.0000 25.1901 3.9162 -10.7415 -3.5032 -11.4681 33.8755 -0.1998 0.5029 -8.2784 -0.0431 1.3404 -3.6859 1.9850 -0.0596 2.8863 3.1303 0.1981 -3.9788 2.1257 0.0898 -5.7545 -1.6447 -1.1212 -21.6925 -3.3806 -0.2544 17.5981 -0.9337 -0.6235 9.1055 -0.0000 0.0000 0.0000 -89.0731 13.1952 29.0183 34.8401 -44.6976 -14.7008 -0.0000 -0.0000 5.0389 18.4276 -1.4703 -0.4898 -7.1250 0.0000 -0.0000 -6.3147 28.4085 2.5643 -0.0000 0.0000 0.0000 84.8154 -8.5206 22.7802 -29.9998 40.8932 -11.4095 0.0000 0.0000 1.1263 -33.1201 -3.4008 2.2163 7.1250 -0.0000 -0.0000 -5.3422 -34.0018 -1.4466
-0.2682 18.5088 15.7660 -2.5391 4.9779 8.9969 0.0000 0.0000 0.0000 -19.4294 -6.9558 -4.8786 3.3261 11.2051 32.9748 -0.1132 -6.9004 -1.1960 1.5311 -7.8123 -22.1455 0.0000 0.0000 0.0000 25.0038 3.8366 -11.1561 -3.6747 -11.7145 34.7295 -0.2149 0.8061 -8.5074 -0.0593 1.5715 -4.3229 1.8704 -0.0447 2.9697 3.0993 0.2127 -3.9682 2.1569 0.1011 -5.7915 -1.6104 -1.1069 -21.5393 -3.3560 -0.2616 17.4292 -0.9286 -0.6178 9.0197 -0.0000 0.0000 0.0000 -89.0302 13.0523 29.0346 34.9404 -44.7695 -14.7714 -0.0000 -0.0000 4.9615 18.4958 -1.3423 -0.4490 -7.1250 0.0000 -0.0000 -6.2692 28.5424 2.5256 -0.0000 0.0000 0.0000 84.7643 -8.5727 22.9156 -30.1308 41.0052 -11.4953 0.0000 0.0000 1.1736 -32.9846 -3.4278 2.2223 7.1250 -0.0000 -0.0000 -5.2319 -34.0290 -1.4131
